<svg width="1em" height="1em" font-size="20" fill="currentColor" style="user-select: none; display: inline-block;" viewBox="0 0 24 24" xmlns="http://www.w3.org/2000/svg" data-testid="AirlineSeatReclineExtraIcon"><path fill-rule="evenodd" d="m11.4427 11.541.3787 1.71h4.7983c1.3188 0 2.4771 1.004 2.5605 2.3784l.0665 1.096c.0581.9566-.6692 1.7657-1.5871 1.7657h-7.4234l.0376.1685c.1198.537.5783.917 1.1063.917h5.1561c.3764 0 .6816.3186.6816.7117S16.9126 21 16.5362 21h-5.1561c-1.1617 0-2.1702-.836-2.4338-2.0175l-.1097-.4914H8.762c-.7536 0-1.4038-.5523-1.557-1.3229L4.7839 4.9984C4.5786 3.9674 5.3324 3 6.3408 3H7.564c1.154 0 2.158.8252 2.4291 1.9966l1.1505 5.1944h5.1125c.3952 0 .7155.3023.7155.675s-.3203.675-.7155.675zM6.1184 4.7089c-.0293-.1473.0784-.2855.2225-.2855H7.564c.5246 0 .981.3751 1.1041.9076l1.082 4.86h-.4784c-.3951 0-.7154.3023-.7154.675s.3203.675.7154.675h.779l.6976 3.1334h5.8713c.5994 0 1.1622.4203 1.2001 1.045l.0666 1.0961c.0083.1366-.0956.2522-.2268.2522h-8.267a1 1 0 0 0-.0287 0h-.602c-.1077 0-.2005-.0789-.2224-.189z" clip-rule="evenodd"></path></svg>