<svg width="1em" height="1em" font-size="1.5rem" fill="currentColor" viewBox="0 0 24 24"
    xmlns="http://www.w3.org/2000/svg" data-testid="MorningIcon"
    style="user-select: none; display: inline-block;">
    <path
        d="M12.7588 5.7565c0-.4178-.3575-.7565-.7986-.7565s-.7985.3387-.7985.7565v2.226c0 .4178.3575.7565.7985.7565s.7986-.3387.7986-.7564z"></path>
    <path fill-rule="evenodd"
        d="M4.9365 17.4274v.0597H2.726c-.401 0-.726.3386-.726.7564S2.325 19 2.726 19h18.548c.401 0 .726-.3387.726-.7565s-.325-.7564-.726-.7564h-2.2901v-.0597c0-3.6746-3.1446-6.6534-7.0237-6.6534s-7.0237 2.9788-7.0237 6.6534m7.0237-5.1405c-2.997 0-5.4266 2.3015-5.4266 5.1405v.0597h10.8532v-.0597c0-2.839-2.4296-5.1405-5.4266-5.1405"
        clip-rule="evenodd"></path>
    <path
        d="M20.7554 8.8166a.7614.7614 0 0 1 0 1.0896l-1.6006 1.5741c-.306.3009-.8021.3009-1.1081 0a.7616.7616 0 0 1 0-1.0896l1.6007-1.5741c.306-.3009.8021-.3009 1.108 0M3.2446 9.8616a.7615.7615 0 0 1 0-1.0896c.306-.301.802-.301 1.108 0l1.6006 1.5741a.7615.7615 0 0 1 0 1.0896c-.306.3009-.802.3009-1.108 0z"></path>
</svg>