<svg width="20" height="20" viewBox="0 0 20 20" fill="none" xmlns="http://www.w3.org/2000/svg">
<g clip-path="url(#clip0_4088_99562)">
<path d="M13.571 14.9999V17.8571C13.571 18.2359 13.4205 18.5994 13.1526 18.8672C12.8847 19.1351 12.5213 19.2857 12.1424 19.2857H2.14244C1.76355 19.2857 1.4002 19.1351 1.13229 18.8672C0.864377 18.5994 0.713867 18.2359 0.713867 17.8571V2.1428C0.713867 1.76392 0.864377 1.40056 1.13229 1.13265C1.4002 0.864743 1.76355 0.714233 2.14244 0.714233H12.1424C12.5213 0.714233 12.8847 0.864743 13.1526 1.13265C13.4205 1.40056 13.571 1.76392 13.571 2.1428V4.99995" stroke="#303030" stroke-width="1.5" stroke-linecap="round" stroke-linejoin="round"/>
<path d="M9.28516 10H19.2852" stroke="#303030" stroke-width="1.5" stroke-linecap="round" stroke-linejoin="round"/>
<path d="M16.4277 7.14282L19.2849 9.99996L16.4277 12.8571" stroke="#303030" stroke-width="1.5" stroke-linecap="round" stroke-linejoin="round"/>
</g>
<defs>
<clipPath id="clip0_4088_99562">
<rect width="20" height="20" fill="white"/>
</clipPath>
</defs>
</svg>
