<svg width="1em" height="1em" font-size="1.5rem" fill="currentColor" viewBox="0 0 24 24"
    xmlns="http://www.w3.org/2000/svg" data-testid="EveningIcon"
    style="user-select: none; display: inline-block;">
    <path
        d="M13.7415 5.7383v2.0364c0 .9844-1.5214.9844-1.5214 0V5.7383c0-.9844 1.5214-.9844 1.5214 0"></path>
    <path fill-rule="evenodd"
        d="M7.7099 13.1601c-.4152.8335-1.5656.9479-1.915 2.0756-1.5984.0951-2.7036 1.3079-2.7937 2.9049-.0243.4304.3274.8068.7595.8068h17.3951c1.0734 0 1.0734-1.5 0-1.5h-1.7999c0-3.8189-2.4141-7.3183-6.5605-7.3183-2.0872 0-4.1404 1.1335-5.0855 3.031m7.2822 4.2873h2.8423c0-2.9826-1.7294-5.791-5.039-5.791-1.3048 0-2.655.6054-3.4162 1.6729 1.7275.1627 2.7765 1.1599 3.2599 1.97.8356.1203 1.4397.5478 1.8368 1.0798.2561.3433.4195.7195.5162 1.0683m-7.7883-1.4566c-.1048-2.1053 3.7154-1.0874 4.236.3062.2994.8015 1.443.3545 1.902 1.1231H4.7185c.5153-.9687 2.5479-.1729 2.4853-1.4293"
        clip-rule="evenodd"></path>
    <path
        d="M20.9041 9.5759c.6926-.6952-.3808-1.7776-1.0758-1.08l-1.4344 1.44c-.6926.6952.3808 1.7775 1.0758 1.0799zM5.1288 9.5351l1.4344 1.44c.695.6976 1.7684-.3848 1.0759-1.08l-1.4345-1.44c-.695-.6975-1.7684.3849-1.0758 1.08"></path>
</svg>