<svg width="1em" height="1em" font-size="1.5rem" fill="currentColor" viewBox="0 0 24 24"
    xmlns="http://www.w3.org/2000/svg" data-testid="AfternoonIcon"
    style="user-select: none; display: inline-block;">
    <path
        d="M12.7699 3.2533v1.9903c0 .9715-1.5066.9715-1.5066 0V3.2533c0-.9715 1.5066-.9715 1.5066 0m-.0332 15.5269v1.9665c0 .9715-1.5066.9715-1.5066 0v-1.9665c0-.9715 1.5066-.9715 1.5066 0m8.01-6.0104H18.78c-.9715 0-.9715-1.5066 0-1.5066h1.9667c.9715 0 .9715 1.5066 0 1.5066m-15.5053-.0331c.9715 0 .9715-1.5066 0-1.5066h-1.988c-.9716 0-.9716 1.5066 0 1.5066zm13.4877-6.3771-1.4192 1.4192c-.6869.687-1.7523-.3784-1.0653-1.0654l1.4192-1.4192c.687-.687 1.7523.3784 1.0653 1.0654M7.7349 17.307 6.336 18.7059c-.687.6869-1.7523-.3784-1.0653-1.0654l1.3989-1.3988c.687-.687 1.7523.3783 1.0653 1.0653M6.3596 5.2707c-.687-.687-1.7523.3784-1.0653 1.0653l1.4301 1.4302c.687.687 1.7523-.3784 1.0653-1.0654zm10.9377 10.9846c-.687-.687-1.7523.3783-1.0653 1.0653l1.4085 1.4086c.687.6869 1.7523-.3784 1.0654-1.0654z"></path>
    <path fill-rule="evenodd"
        d="M12 15.5154c1.9415 0 3.5154-1.5739 3.5154-3.5154S13.9415 8.4846 12 8.4846 8.4846 10.0585 8.4846 12 10.0585 15.5154 12 15.5154m0 1.5066c2.7736 0 5.022-2.2484 5.022-5.022S14.7736 6.978 12 6.978 6.978 9.2264 6.978 12 9.2264 17.022 12 17.022"
        clip-rule="evenodd"></path>
</svg>