<svg width="1em" height="1em" font-size="1.5rem" fill="currentColor" viewBox="0 0 24 24"
    xmlns="http://www.w3.org/2000/svg" data-testid="NightIcon"
    style="user-select: none; display: inline-block;">
    <path fill-rule="evenodd"
        d="M16.2278 14.9882c2.418-4.2931-.1936-9.9137-5.0336-10.935-2.5969-.548-.9751 3.289-.8841 4.5507.0802 1.112-.403 2.3652-1.2848 3.3747-.8303.9505-2.014 1.6851-3.4137 1.8828-3.6707.5182-.1742 3.8266 1.6566 4.2108C7.1028 18.7508 6.9878 20 7.9986 20H19.17c.6415 0 .83-.5264.83-1.0622 0-1.6151-1.0203-2.8711-3.0428-2.999a3.64 3.64 0 0 0-.7294-.9506m-1.1684-.7308c-.4501-.1752-.9471-.2694-1.4751-.2694-1.4893 0-2.4636.7791-3.2002 1.9508-1.1442 0-1.9521.3518-2.472.9078-.4153-.0673-.7706-.1596-1.0793-.2769-.5228-.1985-.9492-.6438-1.2351-.9951-.0736-.0903-.018-.2154.0953-.2435 2.311-.5732 3.4528-1.4055 4.4397-2.5822 1.0041-1.1971 1.6262-2.7412 1.518-4.2411-.0558-.7727-.341-1.989-.5979-2.7753-.0436-.1332.0725-.2668.2087-.2324 3.9763 1.0047 5.4313 5.2928 3.7979 8.7573m-3.9108 3.0584c.5899-.9385 1.1816-1.9508 2.4357-1.9508 1.3271 0 1.9591.8564 2.516 1.8993 1.011.064 2.3183.1159 2.5002 1.3801H8.5721c.1702-1.3468 1.47-1.3286 2.5765-1.3286"
        clip-rule="evenodd"></path>
</svg>