<svg xmlns="http://www.w3.org/2000/svg" width="20" height="20" viewBox="0 0 20 20" fill="none">
    <g clip-path="url(#clip0_4161_5539)">
        <path
            d="M7.14369 9.28568C9.11614 9.28568 10.7151 7.68669 10.7151 5.71425C10.7151 3.74181 9.11614 2.14282 7.14369 2.14282C5.17125 2.14282 3.57227 3.74181 3.57227 5.71425C3.57227 7.68669 5.17125 9.28568 7.14369 9.28568Z"
            stroke="white" stroke-width="1.5" stroke-linecap="round" stroke-linejoin="round" />
        <path
            d="M0.714844 19.2856H7.14341H13.572V18.5112C13.5606 17.4223 13.2734 16.354 12.7373 15.4063C12.2012 14.4585 11.4336 13.662 10.5062 13.0913C9.57877 12.5206 8.52186 12.1943 7.43416 12.1428C7.33719 12.1382 7.24024 12.1358 7.14341 12.1356C7.04659 12.1358 6.94964 12.1382 6.85267 12.1428C5.76497 12.1943 4.70806 12.5206 3.78066 13.0913C2.85327 13.662 2.08566 14.4585 1.54952 15.4063C1.01338 16.354 0.726217 17.4223 0.714844 18.5112V19.2856Z"
            stroke="white" stroke-width="1.5" stroke-linecap="round" stroke-linejoin="round" />
        <path
            d="M12.8574 9.28568C14.8299 9.28568 16.4289 7.68669 16.4289 5.71425C16.4289 3.74181 14.8299 2.14282 12.8574 2.14282"
            stroke="white" stroke-width="1.5" stroke-linecap="round" stroke-linejoin="round" />
        <path
            d="M16.43 19.2858H19.2871V18.5112C19.2757 17.4223 18.9885 16.3541 18.4524 15.4063C17.9163 14.4585 17.1487 13.6621 16.2213 13.0914C15.6218 12.7225 14.9681 12.4557 14.2871 12.2992"
            stroke="white" stroke-width="1.5" stroke-linecap="round" stroke-linejoin="round" />
    </g>
    <defs>
        <clipPath id="clip0_4161_5539">
            <rect width="20" height="20" fill="white" />
        </clipPath>
    </defs>
</svg>